<svg xmlns="http://www.w3.org/2000/svg"
    xmlns:xlink="http://www.w3.org/1999/xlink" viewBox="0 0 35.28 35.28">
    <defs>
        <linearGradient id="linear-gradient" x1="5.17" y1="2050.51" x2="30.11" y2="2075.46" gradientTransform="matrix(1, 0, 0, -1, 0, 2080.62)" gradientUnits="userSpaceOnUse">
            <stop offset="0" stop-color="#ffd521"/>
            <stop offset="0.06" stop-color="#ffd020"/>
            <stop offset="0.12" stop-color="#fec01e"/>
            <stop offset="0.2" stop-color="#fca71b"/>
            <stop offset="0.28" stop-color="#fa8316"/>
            <stop offset="0.37" stop-color="#f85510"/>
            <stop offset="0.46" stop-color="#f51e09"/>
            <stop offset="0.5" stop-color="#f30005"/>
            <stop offset="0.5" stop-color="#f20007"/>
            <stop offset="0.6" stop-color="#e1003b"/>
            <stop offset="0.69" stop-color="#d30067"/>
            <stop offset="0.78" stop-color="#c70088"/>
            <stop offset="0.86" stop-color="#bf00a0"/>
            <stop offset="0.94" stop-color="#bb00af"/>
            <stop offset="1" stop-color="#b900b4"/>
        </linearGradient>
    </defs>
    <g id="Layer_2" data-name="Layer 2">
        <g id="Layer_1-2" data-name="Layer 1">
            <path d="M17.64,35.28h0A17.64,17.64,0,0,1,0,17.64H0A17.64,17.64,0,0,1,17.64,0h0A17.64,17.64,0,0,1,35.28,17.64h0A17.64,17.64,0,0,1,17.64,35.28Z" style="fill:url(#linear-gradient)"/>
            <path d="M17.64,7.77c3.21,0,3.59,0,4.86.07a6.38,6.38,0,0,1,2.24.42,3.61,3.61,0,0,1,1.38.89,3.79,3.79,0,0,1,.9,1.39,6.61,6.61,0,0,1,.42,2.23c.06,1.27.07,1.66.07,4.87s0,3.59-.07,4.86A6.38,6.38,0,0,1,27,24.74,4,4,0,0,1,24.74,27a6.63,6.63,0,0,1-2.24.42c-1.27.06-1.65.07-4.86.07s-3.6,0-4.87-.07A6.37,6.37,0,0,1,10.54,27a3.79,3.79,0,0,1-1.39-.9,3.61,3.61,0,0,1-.89-1.38,6.63,6.63,0,0,1-.42-2.24c-.06-1.27-.07-1.65-.07-4.86s0-3.6.07-4.87a6.37,6.37,0,0,1,.42-2.23,3.85,3.85,0,0,1,2.28-2.28,6.61,6.61,0,0,1,2.23-.42c1.27-.06,1.66-.07,4.87-.07m0-2.17c-3.27,0-3.68,0-5,.07a8.84,8.84,0,0,0-2.93.56A6.18,6.18,0,0,0,6.23,9.75a8.84,8.84,0,0,0-.56,2.93c-.06,1.28-.07,1.69-.07,5s0,3.68.07,5a8.83,8.83,0,0,0,.56,2.92,6.18,6.18,0,0,0,3.52,3.52,9.1,9.1,0,0,0,2.93.56c1.28.06,1.69.07,5,.07s3.68,0,5-.07a8.83,8.83,0,0,0,2.92-.56,6.16,6.16,0,0,0,3.52-3.53,9,9,0,0,0,.56-2.92c.06-1.29.07-1.69.07-5s0-3.68-.07-5a8.83,8.83,0,0,0-.56-2.92,6.16,6.16,0,0,0-3.53-3.52,8.77,8.77,0,0,0-2.92-.56c-1.28-.06-1.69-.07-5-.07Z" style="fill:#fff"/>
            <path d="M17.64,11.45a6.19,6.19,0,1,0,6.18,6.19A6.19,6.19,0,0,0,17.64,11.45Zm0,10.2a4,4,0,1,1,4-4A4,4,0,0,1,17.64,21.65Z" style="fill:#fff"/>
            <circle cx="24.07" cy="11.21" r="1.45" style="fill:#fff"/>
        </g>
    </g>
</svg>