<svg xmlns="http://www.w3.org/2000/svg" viewBox="0 0 35.28 35.28">
    <g id="Layer_2" data-name="Layer 2">
        <g id="Layer_1-2" data-name="Layer 1">
            <circle cx="17.64" cy="17.64" r="17.64" style="fill:#55acee"/>
            <path d="M28.94,11.08a9,9,0,0,1-2.6.71,4.58,4.58,0,0,0,2-2.5,9.13,9.13,0,0,1-2.87,1.09,4.53,4.53,0,0,0-7.83,3.1,4.4,4.4,0,0,0,.12,1A12.83,12.83,0,0,1,8.43,9.78a4.51,4.51,0,0,0,1.4,6,4.42,4.42,0,0,1-2-.56v.05a4.52,4.52,0,0,0,3.62,4.44,4.62,4.62,0,0,1-1.19.16,4.8,4.8,0,0,1-.85-.08A4.55,4.55,0,0,0,13.59,23,9.1,9.1,0,0,1,8,24.9a9.51,9.51,0,0,1-1.08-.06A12.86,12.86,0,0,0,26.69,14c0-.19,0-.39,0-.58a9.31,9.31,0,0,0,2.26-2.34" style="fill:#fff"/>
        </g>
    </g>
</svg>